<?xml version="1.0" standalone="no"?><!-- Generator: Gravit.io --><svg xmlns="http://www.w3.org/2000/svg" xmlns:xlink="http://www.w3.org/1999/xlink" style="isolation:isolate" viewBox="0 0 180 90" width="180" height="90"><defs><clipPath id="_clipPath_GWYwPI4tJ8COlqCCZbc3OynZJWavC6pB"><rect width="180" height="90"/></clipPath></defs><g clip-path="url(#_clipPath_GWYwPI4tJ8COlqCCZbc3OynZJWavC6pB)"><path d=" M 6.045 69 L 173.955 69 C 174.532 69 175 69.468 175 70.045 L 175 86.955 C 175 87.532 174.532 88 173.955 88 L 6.045 88 C 5.468 88 5 87.532 5 86.955 L 5 70.045 C 5 69.468 5.468 69 6.045 69 Z " fill="none" vector-effect="non-scaling-stroke" stroke-width="1" stroke="rgb(255,216,61)" stroke-linejoin="miter" stroke-linecap="square" stroke-miterlimit="3"/><path d=" M 118.251 68.73 L 174.254 68.73 C 174.733 68.73 175.121 69.119 175.121 69.597 L 175.121 87.362 C 175.121 87.841 174.733 88.229 174.254 88.229 L 121.878 88.229 C 121.399 88.229 118.251 87.841 118.251 87.362 L 113.878 69.597 C 113.878 69.119 117.772 68.73 118.251 68.73 Z " fill="rgb(255,216,61)"/><g transform="matrix(0.588,0,0,0.653,119.878,61.036)"><text transform="matrix(1,0,0,1,0,36.396)" style="font-family:&quot;Nunito&quot;;font-weight:600;font-size:36px;font-style:normal;fill:#000000;stroke:none;">store</text></g><g transform="matrix(1,0,0,1,9,67.448)"><text transform="matrix(1,0,0,1,0,17.187)" style="font-family:&quot;Nunito&quot;;font-weight:600;font-size:17px;font-style:normal;fill:#FFD83D;stroke:none;">MOTORGARI</text></g><g id="Group"><path d=" M 110.682 52.766 C 110.682 44.025 117.779 36.928 126.519 36.928 C 135.26 36.928 142.357 44.025 142.357 52.766 C 142.357 61.506 135.26 68.603 126.519 68.603 C 117.779 68.603 110.682 61.506 110.682 52.766 Z  M 114.274 52.766 C 114.274 46.007 119.761 40.52 126.519 40.52 C 133.278 40.52 138.765 46.007 138.765 52.766 C 138.765 59.524 133.278 65.011 126.519 65.011 C 119.761 65.011 114.274 59.524 114.274 52.766 Z " fill-rule="evenodd" fill="rgb(255,216,61)"/><path d=" M 27.518 53.557 C 27.518 45.254 34.26 38.512 42.564 38.512 C 50.868 38.512 57.61 45.254 57.61 53.557 C 57.61 61.861 50.868 68.603 42.564 68.603 C 34.26 68.603 27.518 61.861 27.518 53.557 Z  M 31.111 53.305 C 31.111 46.984 36.243 41.852 42.564 41.852 C 48.885 41.852 54.018 46.984 54.018 53.305 C 54.018 59.627 48.885 64.759 42.564 64.759 C 36.243 64.759 31.111 59.627 31.111 53.305 Z " fill-rule="evenodd" fill="rgb(255,216,61)"/><path d=" M 5.353 60.239 C 3.048 53.253 9.886 52.584 9.886 49.294 C 9.886 44.357 7.106 46.052 7.612 25.538 C 31.211 17.703 41.428 6.396 58.878 2 L 98.878 2 C 101.215 5.556 163.246 14.446 163.823 30.577 C 161.407 35.622 158.195 36.476 152.665 39.036 C 163.767 45.869 172.621 48.126 173.878 60.239 L 148.878 60.239 C 145.694 56.889 147.854 52.938 146.623 47.769 C 145.393 42.599 142.808 36.211 136.329 34.107 C 139.836 31.564 141.927 28.714 142.587 25.538 C 141.507 20.279 112.031 12.536 102.878 12.618 L 90.587 12.618 L 90.587 49.441 L 74.822 49.441 L 74.822 12.618 L 62.332 12.618 L 61.792 47.769 C 60.457 43.231 55.51 34.904 48.906 34.107 C 49.187 27.142 49.198 22.99 48.906 16.218 L 40.841 21.759 L 40.841 34.107 C 35.208 34.886 29.335 37.794 27.523 42.815 Q 27.948 25.318 27.523 25.538 C 23.874 27.429 21.404 32.017 21.404 32.513 C 21.211 32.737 21.404 46.774 21.404 47.261 C 22.124 52.893 24.284 59.372 23.566 60.239 L 5.353 60.239 L 5.353 60.239 Z " fill="none" vector-effect="non-scaling-stroke" stroke-width="2" stroke="rgb(255,216,61)" stroke-opacity="1000000" stroke-linejoin="miter" stroke-linecap="square" stroke-miterlimit="3"/><path d=" M 41.484 46.876 L 47.187 46.876 L 51.389 50.655 L 118.179 50.655 L 122.207 46.876 L 127.91 46.876 L 127.91 50.116 L 123.521 50.116 L 121.371 53.625 L 123.521 57.134 L 127.91 57.134 L 127.91 60.239 L 122.207 60.239 L 118.179 55.919 L 51.389 56.054 L 47.187 60.239 L 41.484 60.239 L 41.484 56.999 L 45.874 56.999 L 48.023 53.625 L 45.874 50.116 L 41.484 50.116 L 41.484 46.876 L 41.484 46.876 L 41.484 46.876 Z " fill="none" vector-effect="non-scaling-stroke" stroke-width="2" stroke="rgb(255,216,61)" stroke-linejoin="miter" stroke-linecap="butt" stroke-miterlimit="4"/><path d=" M 45.874 53.422 L 44.139 56.459 L 40.671 56.459 L 38.937 53.422 L 40.671 50.386 L 44.139 50.386 L 45.874 53.422 L 45.874 53.422 Z " fill="none" vector-effect="non-scaling-stroke" stroke-width="1" stroke="rgb(255,216,61)" stroke-linejoin="miter" stroke-linecap="square" stroke-miterlimit="3"/><path d=" M 129.988 53.422 L 128.254 56.459 L 124.785 56.459 L 123.051 53.422 L 124.785 50.386 L 128.254 50.386 L 129.988 53.422 L 129.988 53.422 Z " fill="none" vector-effect="non-scaling-stroke" stroke-width="1" stroke="rgb(255,216,61)" stroke-linejoin="miter" stroke-linecap="square" stroke-miterlimit="3"/><path d=" M 62.332 2 L 62.332 12.618 L 74.822 12.618 L 74.822 49.294 L 90.587 49.441 L 90.587 12.618 L 102.878 12.618 Q 102.604 11.912 102.878 4 C 100.204 2.89 101.89 3.545 98.878 2 L 62.332 2 Z " fill="none" vector-effect="non-scaling-stroke" stroke-width="2" stroke="rgb(255,216,61)" stroke-linejoin="miter" stroke-linecap="butt" stroke-miterlimit="4"/><path d=" M 108.786 22.941 C 108.483 25.409 110.547 29.412 110.682 29.412 C 114.403 29.412 123.099 28.285 121.069 26.177 C 115.97 24.21 111.896 23.151 108.786 22.941 Z " fill="none" vector-effect="non-scaling-stroke" stroke-width="2" stroke="rgb(255,216,61)" stroke-opacity="1000000" stroke-linejoin="miter" stroke-linecap="square" stroke-miterlimit="3"/></g></g></svg>